<svg xmlns="http://www.w3.org/2000/svg" viewBox="0 0 128 128" id="map">
  <path d="M125.793 2.425a4 4 0 0 0-4.185.369L97.463 20.809A1.991 1.991 0 0 0 97 20.75c-.013 0-.024.003-.037.004L75.642 4.846a4 4 0 0 0-4.784 0L27.75 37.009 6.392 21.074A4 4 0 0 0 0 24.28v80a4 4 0 0 0 1.608 3.206l23.75 17.72a4 4 0 0 0 4.784 0L73.25 93.042l21.608 16.122a4 4 0 0 0 4.784 0l26.75-19.958A4 4 0 0 0 128 86V6a4 4 0 0 0-2.207-3.575ZM4 24.28l22 16.414V60.5a2 2 0 0 0 3.183 1.613L47 49.047v19.365L26.906 83.25 4.06 68.97c-.02-.011-.04-.018-.06-.029Zm22.788 75.63A2 2 0 0 0 26 101.5v19.194L4 104.28V73.65l21.94 13.713a2 2 0 0 0 2.248-.088L47 73.383V84.51ZM71 89.73l-41 30.591v-17.83l20.212-15.4A2 2 0 0 0 51 85.5V46.113l20-14.666ZM124 86l-25 18.653V94.25l25-18.75Zm0-70.764-23.743 17.398a20.067 20.067 0 0 1 5.062 1.25L124 20.195v34.284l-7.976 5.776a62.44 62.44 0 0 1-4.013 7.844L124 59.418V70.5L95.8 91.65a1.998 1.998 0 0 0-.8 1.6v11.03L75 89.358v-44.86l3.824 2.136a19.389 19.389 0 0 1 1.543-3.72l-5.058-2.827a1.988 1.988 0 0 0-.309-.134V27.5a2 2 0 0 0-3.183-1.613L30 56.553V40.321l43.25-32.27L95 24.28v8.466a20.276 20.276 0 0 1 3-.246c.338 0 .666.034 1 .05v-7.897L124 6Z"></path>
  <path d="M82 52.188c0 7.235 9.805 20.754 12.81 24.726a4 4 0 0 0 6.38 0C104.195 72.942 114 59.423 114 52.187a16.003 16.003 0 0 0-32 0Zm22 .312a6 6 0 1 1-6-6 6.007 6.007 0 0 1 6 6Z"></path>
</svg>
